HIERARCHY
ROOT Hips
{
	OFFSET	0.000000	0.000000	0.000000
	CHANNELS 6 Xposition Yposition Zposition Zrotation Xrotation Yrotation
	JOINT LeftUpLeg
	{
		OFFSET	12.830505	-7.049846	-1.643436
		CHANNELS 3 Zrotation Xrotation Yrotation
		JOINT LeftLeg
		{
			OFFSET	0.620834	-39.957502	-1.919341
			CHANNELS 3 Zrotation Xrotation Yrotation
			JOINT LeftFoot
			{
				OFFSET	-0.413890	-44.704761	-3.870325
				CHANNELS 3 Zrotation Xrotation Yrotation
				JOINT LeftFootHeel
				{
					OFFSET	0.164738	-8.918194	-6.555130
					CHANNELS 3 Zrotation Xrotation Yrotation
					End Site
					{
						OFFSET	-0.604053	0.000000	21.044330
					}
				}
			}
		}
	}
	JOINT RightUpLeg
	{
		OFFSET	-12.830505	-7.049846	-1.643436
		CHANNELS 3 Zrotation Xrotation Yrotation
		JOINT RightLeg
		{
			OFFSET	-0.620834	-39.957502	-1.919341
			CHANNELS 3 Zrotation Xrotation Yrotation
			JOINT RightFoot
			{
				OFFSET	0.413890	-44.704761	-3.870325
				CHANNELS 3 Zrotation Xrotation Yrotation
				JOINT RightFootHeel
				{
					OFFSET	-0.164738	-8.918194	-6.555130
					CHANNELS 3 Zrotation Xrotation Yrotation
					End Site
					{
						OFFSET	0.604053	0.000000	21.044330
					}
				}
			}
		}
	}
	JOINT Spine
	{
		OFFSET	0.000000	12.498171	1.820647
		CHANNELS 3 Zrotation Xrotation Yrotation
		JOINT Spine1
		{
			OFFSET	0.000000	7.620000	0.000000
			CHANNELS 3 Zrotation Xrotation Yrotation
			JOINT LeftShoulder
			{
				OFFSET	9.167800	29.136339	-5.551221
				CHANNELS 3 Zrotation Xrotation Yrotation
				JOINT LeftArm
				{
					OFFSET	12.133453	-3.880866	1.461963
					CHANNELS 3 Zrotation Xrotation Yrotation
					JOINT LeftForeArm
					{
						OFFSET	2.507115	-31.664910	-1.069404
						CHANNELS 3 Zrotation Xrotation Yrotation
						JOINT LeftHand
						{
							OFFSET	4.116172	-24.512624	5.009439
							CHANNELS 3 Zrotation Xrotation Yrotation
							End Site
							{
								OFFSET	-0.213136	-10.931856	2.182134
							}
						}
					}
				}
			}
			JOINT RightShoulder
			{
				OFFSET	-9.167800	29.136339	-5.551221
				CHANNELS 3 Zrotation Xrotation Yrotation
				JOINT RightArm
				{
					OFFSET	-12.133453	-3.880866	1.461963
					CHANNELS 3 Zrotation Xrotation Yrotation
					JOINT RightForeArm
					{
						OFFSET	-2.507115	-31.664910	-1.069404
						CHANNELS 3 Zrotation Xrotation Yrotation
						JOINT RightHand
						{
							OFFSET	-4.116172	-24.512624	5.009439
							CHANNELS 3 Zrotation Xrotation Yrotation
							End Site
							{
								OFFSET	0.213136	-10.931856	2.182134
							}
						}
					}
				}
			}
			JOINT Neck
			{
				OFFSET	0.000000	32.926275	-3.635654
				CHANNELS 3 Zrotation Xrotation Yrotation
				JOINT Head
				{
					OFFSET	0.000000	12.481178	4.646143
					CHANNELS 3 Zrotation Xrotation Yrotation
					End Site
					{
						OFFSET	0.000000	17.715205	-2.222063
					}
				}
			}
		}
	}
}
MOTION
Frames:     6
Frame Time: 0.016667
3.656858	92.296516	6.634662	5.204484	-1.042198	3.083515	-18.952618	-34.459610	-8.212742	22.318905	50.980225	-30.782091	0.177442	-14.955657	-0.205686	0.	0.	0.	-25.189882	-0.463747	-19.572060	13.344205	51.140995	-21.397524	16.992155	-32.773403	-0.852604	0.	0.	0.	-0.000000	0.000000	0.000000	17.799208	7.317741	7.740063	-1.444991	-6.803826	7.673934	13.978471	14.982034	1.682939	73.488625	-144.200623	85.124870	-17.971479	-1.474654	-3.806683	1.184083	-6.094798	-9.369552	-15.982897	30.874617	-15.929379	-2.610964	-59.960941	-41.394768	9.507381	-2.941183	-0.885659	-10.714991	-8.119213	13.776285	-5.698511	-10.409616	-16.281229	
3.926308	92.741838	8.823291	5.238565	-1.901800	8.960888	-19.883715	-31.357126	-9.747468	22.229862	50.096943	-31.695152	0.719420	-15.269622	-2.728668	0.	0.	0.	-23.886889	3.234554	-22.609463	11.465887	49.136452	-18.508366	15.079304	-31.524435	-5.303963	0.	0.	0.	-0.000000	0.000000	0.000001	13.824149	2.241265	13.851499	-1.327183	-5.208910	8.266185	13.973868	8.334673	0.358710	73.527847	-144.914566	82.778198	-19.500509	-2.323874	-1.788315	-0.915240	-6.190507	-10.231122	-23.456532	18.646812	-16.925055	2.875941	-45.657143	-42.048832	22.205044	-14.774703	9.204433	-6.629241	-2.988599	4.714453	3.514408	-9.658695	-17.679749	
4.011593	93.670609	10.228046	3.600740	-2.832642	12.063175	-17.696930	-29.142084	-9.329556	22.117727	48.768608	-33.057289	0.975222	-15.371088	-4.015089	0.	0.	0.	-19.482855	5.734921	-21.687155	11.038434	45.870628	-19.738161	13.716965	-29.859928	-8.369934	0.	0.	0.	-0.000000	0.000000	-0.000002	12.445758	0.031757	16.643595	-1.191376	-4.718833	8.602734	12.698224	2.959403	0.652758	73.827171	-144.972458	82.395821	-19.779621	-3.356352	-0.110770	-2.145924	-7.042581	-11.293862	-28.756624	5.638974	-21.251114	7.247538	-45.920845	-34.323994	21.450235	-14.808718	9.043839	-6.534237	3.347676	-5.745493	11.466714	-8.524896	-17.556877	
3.929369	94.300589	11.244103	3.647414	-4.676505	14.388617	-16.697813	-25.951738	-8.991823	21.558659	47.509544	-33.438591	1.006807	-15.340084	-4.917778	0.	0.	0.	-16.632339	9.204573	-20.439701	10.205891	42.589802	-21.047562	12.887841	-27.900320	-10.360252	0.	0.	0.	0.000000	-0.000000	-0.000001	10.876769	-0.806263	18.745953	-1.225003	-3.522265	9.022207	10.591869	-2.068740	1.257919	74.491447	-145.138794	82.808342	-19.630177	-4.257545	1.289706	-3.571340	-9.283196	-12.226122	-35.098339	-7.501200	-27.357006	13.009637	-46.687565	-23.575932	20.625109	-13.002604	10.250856	-7.734246	6.979776	-12.709921	19.499538	-4.480110	-19.598139	
3.808978	95.132293	12.302783	3.682758	-6.040472	16.450493	-15.721786	-22.814070	-9.363136	20.467907	45.617523	-32.644108	0.570884	-14.993897	-6.049233	0.	0.	0.	-13.563570	13.135079	-20.311258	8.715878	38.010994	-21.515202	12.406701	-24.850187	-11.934471	0.	0.	0.	-0.000000	0.000000	0.000001	8.744812	-1.117397	24.407810	-3.293255	-6.276283	7.944357	10.800223	-5.265877	0.646361	74.828308	-144.914917	82.464592	-20.020306	-4.675094	2.396223	-7.928675	-15.247752	-13.171103	-43.399143	-24.172415	-31.420799	14.248915	-52.011902	-18.808558	21.567419	-8.194327	14.144592	-8.894172	6.214923	-17.496092	21.755322	-1.050178	-25.838049	
3.729341	95.324374	12.546306	3.823086	-6.136443	16.943220	-15.657043	-22.205807	-9.623236	20.102356	45.041355	-32.196667	0.288391	-14.800486	-6.461926	0.	0.	0.	-13.567522	13.375495	-20.756670	8.432261	37.588493	-21.499874	12.474121	-23.813272	-11.935613	0.	0.	0.	-0.000001	0.000002	-0.000000	7.262563	-1.241820	28.601622	-3.925008	-7.898355	6.236665	11.275172	-5.899455	-0.791970	74.905426	-144.565033	82.214500	-20.452946	-4.533739	2.432652	-10.001244	-16.989054	-15.122616	-46.567234	-29.466290	-31.860634	12.246673	-53.472507	-19.244509	22.512489	-7.155744	14.642901	-8.020494	4.545593	-20.185431	21.941833	-1.126094	-27.674046	
